<svg width="91" height="36" viewBox="0 0 91 36" fill="none" xmlns="http://www.w3.org/2000/svg">
<path fill-rule="evenodd" clip-rule="evenodd" d="M73.6893 31.2331C72.372 30.8531 71.7133 30.2958 71.7133 29.5611C71.7133 28.4971 73.1573 27.9651 76.0453 27.9651C77.464 27.9651 79.098 28.0918 80.9473 28.3451C82.7967 28.5984 84.57 28.9151 86.2673 29.2951C86.166 30.0298 85.6847 30.5871 84.8233 30.9671C83.962 31.3724 82.6193 31.6258 80.7953 31.7271C79.8327 31.7778 79.1233 31.8031 78.6673 31.8031C76.6913 31.8031 75.032 31.6131 73.6893 31.2331ZM71.7133 21.6951H67.1533V29.5611C67.1533 31.8158 68.2553 33.4498 70.4593 34.4631C72.6887 35.4764 75.45 35.9831 78.7433 35.9831C79.25 35.9831 80.0353 35.9578 81.0993 35.9071C84.1393 35.7044 86.5207 35.0331 88.2433 33.8931C89.9913 32.7784 90.8653 31.1318 90.8653 28.9531V22.0751H86.3053V25.0391C82.6573 24.2284 79.364 23.8231 76.4253 23.8231C74.6013 23.8231 73.0307 24.0004 71.7133 24.3551V21.6951Z" fill="#384251"/>
<path d="M80.1493 9.53509H86.3053V12.1951H80.1493V16.7551H86.3053V20.9731H90.8653V1.13708H86.3053V4.97509H80.1493V9.53509Z" fill="#384251"/>
<path d="M33.9282 25.5711H52.9282C53.3842 25.5711 53.7262 25.5331 53.9542 25.4571C54.1822 25.3558 54.2962 25.2418 54.2962 25.1151C54.2962 24.8871 54.0682 24.7224 53.6122 24.6211C52.9535 24.4184 51.9655 24.2538 50.6482 24.1271C49.3309 24.0004 47.8615 23.9371 46.2402 23.9371C42.2882 23.9371 38.7162 24.2791 35.5242 24.9631L34.5362 20.8591C37.8549 20.1244 41.7055 19.7571 46.0882 19.7571C47.9629 19.7571 49.6982 19.8331 51.2942 19.9851C52.8902 20.1371 54.1189 20.3398 54.9802 20.5931C56.2469 20.9984 57.2095 21.6064 57.8682 22.4171C58.5269 23.2278 58.8562 24.1144 58.8562 25.0771C58.8562 25.8878 58.6155 26.6478 58.1342 27.3571C57.6782 28.0664 56.9942 28.6491 56.0822 29.1051C55.1955 29.5358 54.1442 29.7511 52.9282 29.7511H40.1602C39.9829 29.9284 39.8942 30.1058 39.8942 30.2831C39.8942 30.5871 40.1855 30.8531 40.7682 31.0811C41.6802 31.4864 43.2509 31.6891 45.4802 31.6891C47.7349 31.6891 50.2682 31.4738 53.0802 31.0431C55.8922 30.6378 58.4255 30.0931 60.6802 29.4091L62.0482 33.4371C59.6415 34.1718 56.9309 34.7544 53.9162 35.1851C50.9269 35.6411 48.1655 35.8691 45.6322 35.8691C42.7189 35.8691 40.5149 35.5651 39.0202 34.9571C37.7789 34.3998 36.8542 33.7158 36.2462 32.9051C35.6382 32.0944 35.3342 31.2331 35.3342 30.3211C35.3342 30.0678 35.3469 29.8778 35.3722 29.7511H33.9282V25.5711ZM38.6402 7.93911C38.6402 8.36978 39.4255 8.73711 40.9962 9.04111C42.5922 9.34511 44.4035 9.49711 46.4302 9.49711C47.1902 9.49711 47.7602 9.48444 48.1402 9.45911C51.3829 9.28178 53.2702 8.81311 53.8022 8.05311C52.1049 7.72378 50.2555 7.47044 48.2542 7.29311C46.2782 7.09044 44.5049 6.98911 42.9342 6.98911C40.0715 6.98911 38.6402 7.30578 38.6402 7.93911ZM61.7442 18.5791H30.8882V14.7031H61.7442V18.5791ZM34.0802 0.985107H38.6402V3.30311C40.0589 2.94844 41.7942 2.77111 43.8462 2.77111C46.8355 2.77111 50.2175 3.11311 53.9922 3.79711V1.28911H58.5522V7.44511C58.5522 11.2451 55.1575 13.3098 48.3682 13.6391C47.3549 13.6898 46.5949 13.7151 46.0882 13.7151C42.6935 13.7151 39.8435 13.2718 37.5382 12.3851C35.2329 11.4731 34.0802 9.99111 34.0802 7.93911V0.985107Z" fill="#384251"/>
<path d="M22.61 35.7171V29.4471C22.61 27.3444 20.4187 26.2931 16.036 26.2931C12.9707 26.2931 8.86667 26.7871 3.724 27.7751L2.888 23.6711C8.15733 22.6831 12.426 22.1891 15.694 22.1891C23.3447 22.1891 27.17 24.6084 27.17 29.4471V35.7171H22.61ZM27.018 1.13708V20.9731H22.458V1.13708H27.018ZM0.76 2.12509H19.38V6.30509H0.76V2.12509ZM3.42 15.9571V7.93909H7.98V15.8431L11.02 15.6911C11.5267 14.5258 11.8433 13.4111 11.97 12.3471C12.0967 11.2831 12.16 9.81375 12.16 7.93909H16.72C16.72 9.58575 16.6693 10.9411 16.568 12.0051C16.492 13.0438 16.2893 14.1204 15.96 15.2351C17.7333 15.0324 19.3927 14.7918 20.938 14.5131V18.7691C17.3913 19.3771 14.022 19.7571 10.83 19.9091C7.638 20.0611 4.028 20.1371 0 20.1371V15.9571H3.42Z" fill="#384251"/>
<path fill-rule="evenodd" clip-rule="evenodd" d="M76.5509 4.11519C79.0424 4.11519 81.062 6.19056 81.062 8.75016C81.062 10.6606 79.9371 12.3013 78.3307 13.0107C78.7335 13.7044 78.9655 14.5154 78.9655 15.3815C78.9655 17.9411 76.9458 20.0171 74.4544 20.0171C73.1018 20.0171 71.8884 19.4043 71.062 18.4353C70.235 19.4043 69.0222 20.0171 67.6697 20.0171C65.1782 20.0171 63.1586 17.9411 63.1586 15.3815C63.1586 14.5153 63.3905 13.7044 63.7927 13.0107C62.1869 12.3013 61.062 10.6606 61.062 8.75016C61.062 6.19056 63.0817 4.11519 65.5731 4.11519C65.9155 4.11519 66.2494 4.15533 66.5704 4.22995C66.7779 1.86792 68.7091 0.0170898 71.062 0.0170898C73.4143 0.0170898 75.3454 1.86792 75.5536 4.22995C75.874 4.15533 76.2079 4.11519 76.5509 4.11519ZM67.7287 10.5724C67.7287 12.4142 69.2215 13.906 71.0623 13.906C72.9031 13.906 74.3953 12.4142 74.3953 10.5724C74.3953 8.7316 72.9031 7.23931 71.0623 7.23931C69.2215 7.23931 67.7287 8.73157 67.7287 10.5724Z" fill="#FF45A5"/>
</svg>
